<svg xmlns="http://www.w3.org/2000/svg" width="100" height="100" viewBox="0 0 100 100">
  <g id="Group_8" data-name="Group 8" transform="translate(-814 -313)">
    <circle id="Ellipse_2" data-name="Ellipse 2" cx="50" cy="50" r="50" transform="translate(814 313)" fill="#0e99ff"/>
    <g id="_6313841931586786103" data-name="6313841931586786103" transform="translate(833.986 332.986)">
      <path id="Path_45" data-name="Path 45" d="M57.094,18.808H44.955V2.934A.934.934,0,0,0,44.021,2H16.007a.934.934,0,0,0-.934.934V18.808H2.934A.934.934,0,0,0,2,19.742V57.094a.934.934,0,0,0,.934.934h54.16a.934.934,0,0,0,.934-.934V19.742A.934.934,0,0,0,57.094,18.808ZM3.868,20.676H15.073V56.16H3.868ZM32.815,46.822V56.16h-5.6V46.822ZM43.087,56.16h-8.4V46.822h1.868V44.955H23.477v1.868h1.868V56.16h-8.4V3.868H43.087Zm13.073,0H44.955V20.676H56.16Z" fill="#fff"/>
      <path id="Path_46" data-name="Path 46" d="M50.934,31.47h5.6a.934.934,0,0,0,.934-.934v-5.6A.934.934,0,0,0,56.537,24h-5.6a.934.934,0,0,0-.934.934v5.6A.934.934,0,0,0,50.934,31.47Zm.934-5.6H55.6V29.6H51.868Z" transform="translate(-3.178 -1.456)" fill="#fff"/>
      <path id="Path_47" data-name="Path 47" d="M50.934,41.47h5.6a.934.934,0,0,0,.934-.934v-5.6A.934.934,0,0,0,56.537,34h-5.6a.934.934,0,0,0-.934.934v5.6A.934.934,0,0,0,50.934,41.47Zm.934-5.6H55.6V39.6H51.868Z" transform="translate(-3.178 -2.118)" fill="#fff"/>
      <path id="Path_48" data-name="Path 48" d="M50.934,51.47h5.6a.934.934,0,0,0,.934-.934v-5.6A.934.934,0,0,0,56.537,44h-5.6a.934.934,0,0,0-.934.934v5.6A.934.934,0,0,0,50.934,51.47Zm.934-5.6H55.6V49.6H51.868Z" transform="translate(-3.178 -2.78)" fill="#fff"/>
      <path id="Path_49" data-name="Path 49" d="M12.537,24h-5.6A.934.934,0,0,0,6,24.934v5.6a.934.934,0,0,0,.934.934h5.6a.934.934,0,0,0,.934-.934v-5.6A.934.934,0,0,0,12.537,24ZM11.6,29.6H7.868V25.868H11.6Z" transform="translate(-0.265 -1.456)" fill="#fff"/>
      <path id="Path_50" data-name="Path 50" d="M20.934,27.6h3.735a.934.934,0,0,0,.934-.934V22.934A.934.934,0,0,0,24.669,22H20.934a.934.934,0,0,0-.934.934v3.735A.934.934,0,0,0,20.934,27.6Zm.934-3.735h1.868v1.868H21.868Z" transform="translate(-1.192 -1.324)" fill="#fff"/>
      <path id="Path_51" data-name="Path 51" d="M33.669,22H29.934a.934.934,0,0,0-.934.934v3.735a.934.934,0,0,0,.934.934h3.735a.934.934,0,0,0,.934-.934V22.934A.934.934,0,0,0,33.669,22Zm-.934,3.735H30.868V23.868h1.868Z" transform="translate(-1.787 -1.324)" fill="#fff"/>
      <path id="Path_52" data-name="Path 52" d="M38,22.934v3.735a.934.934,0,0,0,.934.934h3.735a.934.934,0,0,0,.934-.934V22.934A.934.934,0,0,0,42.669,22H38.934A.934.934,0,0,0,38,22.934Zm1.868.934h1.868v1.868H39.868Z" transform="translate(-2.383 -1.324)" fill="#fff"/>
      <path id="Path_53" data-name="Path 53" d="M20.934,35.6h3.735a.934.934,0,0,0,.934-.934V30.934A.934.934,0,0,0,24.669,30H20.934a.934.934,0,0,0-.934.934v3.735A.934.934,0,0,0,20.934,35.6Zm.934-3.735h1.868v1.868H21.868Z" transform="translate(-1.192 -1.854)" fill="#fff"/>
      <path id="Path_54" data-name="Path 54" d="M33.669,30H29.934a.934.934,0,0,0-.934.934v3.735a.934.934,0,0,0,.934.934h3.735a.934.934,0,0,0,.934-.934V30.934A.934.934,0,0,0,33.669,30Zm-.934,3.735H30.868V31.868h1.868Z" transform="translate(-1.787 -1.854)" fill="#fff"/>
      <path id="Path_55" data-name="Path 55" d="M42.669,30H38.934a.934.934,0,0,0-.934.934v3.735a.934.934,0,0,0,.934.934h3.735a.934.934,0,0,0,.934-.934V30.934A.934.934,0,0,0,42.669,30Zm-.934,3.735H39.868V31.868h1.868Z" transform="translate(-2.383 -1.854)" fill="#fff"/>
      <path id="Path_56" data-name="Path 56" d="M20.934,43.6h3.735a.934.934,0,0,0,.934-.934V38.934A.934.934,0,0,0,24.669,38H20.934a.934.934,0,0,0-.934.934v3.735A.934.934,0,0,0,20.934,43.6Zm.934-3.735h1.868v1.868H21.868Z" transform="translate(-1.192 -2.383)" fill="#fff"/>
      <path id="Path_57" data-name="Path 57" d="M33.669,38H29.934a.934.934,0,0,0-.934.934v3.735a.934.934,0,0,0,.934.934h3.735a.934.934,0,0,0,.934-.934V38.934A.934.934,0,0,0,33.669,38Zm-.934,3.735H30.868V39.868h1.868Z" transform="translate(-1.787 -2.383)" fill="#fff"/>
      <path id="Path_58" data-name="Path 58" d="M42.669,38H38.934a.934.934,0,0,0-.934.934v3.735a.934.934,0,0,0,.934.934h3.735a.934.934,0,0,0,.934-.934V38.934A.934.934,0,0,0,42.669,38Zm-.934,3.735H39.868V39.868h1.868Z" transform="translate(-2.383 -2.383)" fill="#fff"/>
      <path id="Path_59" data-name="Path 59" d="M12.537,34h-5.6A.934.934,0,0,0,6,34.934v5.6a.934.934,0,0,0,.934.934h5.6a.934.934,0,0,0,.934-.934v-5.6A.934.934,0,0,0,12.537,34ZM11.6,39.6H7.868V35.868H11.6Z" transform="translate(-0.265 -2.118)" fill="#fff"/>
      <path id="Path_60" data-name="Path 60" d="M12.537,44h-5.6A.934.934,0,0,0,6,44.934v5.6a.934.934,0,0,0,.934.934h5.6a.934.934,0,0,0,.934-.934v-5.6A.934.934,0,0,0,12.537,44ZM11.6,49.6H7.868V45.868H11.6Z" transform="translate(-0.265 -2.78)" fill="#fff"/>
      <path id="Path_61" data-name="Path 61" d="M25.934,15.338h2.8v2.8a.934.934,0,0,0,.934.934H33.4a.934.934,0,0,0,.934-.934v-2.8h2.8a.934.934,0,0,0,.934-.934V10.669a.934.934,0,0,0-.934-.934h-2.8v-2.8A.934.934,0,0,0,33.4,6H29.669a.934.934,0,0,0-.934.934v2.8h-2.8a.934.934,0,0,0-.934.934V14.4A.934.934,0,0,0,25.934,15.338Zm.934-3.735h2.8a.934.934,0,0,0,.934-.934v-2.8H32.47v2.8a.934.934,0,0,0,.934.934h2.8V13.47H33.4a.934.934,0,0,0-.934.934v2.8H30.6V14.4a.934.934,0,0,0-.934-.934h-2.8Z" transform="translate(-1.523 -0.265)" fill="#fff"/>
      <rect id="Rectangle_10" data-name="Rectangle 10" width="2" height="2" transform="translate(39.014 52.014)" fill="#fff"/>
      <rect id="Rectangle_11" data-name="Rectangle 11" width="2" height="2" transform="translate(39.014 49.014)" fill="#fff"/>
      <rect id="Rectangle_12" data-name="Rectangle 12" width="2" height="2" transform="translate(39.014 45.014)" fill="#fff"/>
    </g>
  </g>
</svg>
