<svg xmlns="http://www.w3.org/2000/svg" width="134" height="134" viewBox="0 0 134 134">
  <g id="Group_5" data-name="Group 5" transform="translate(-558 -400)">
    <g id="Group_2" data-name="Group 2">
      <circle id="Ellipse_1" data-name="Ellipse 1" cx="67" cy="67" r="67" transform="translate(558 400)" fill="#0e99ff"/>
      <g id="_13392516401605810024" data-name="13392516401605810024" transform="translate(589 423.991)">
        <path id="Path_5" data-name="Path 5" d="M52.107,34.49v-5.9c.26-1.07.748-1.624,1.3-1.722,1.918-.346,1.612,7.206-1.3,7.617ZM16.8,68.213A2.283,2.283,0,1,1,14.525,70.5,2.282,2.282,0,0,1,16.8,68.213Zm9.1-42.528a.464.464,0,0,1-.6-.32.525.525,0,0,1,.293-.652,7.843,7.843,0,0,1,2.854-.515,8.816,8.816,0,0,1,2.835.509.519.519,0,0,1,.306.639.46.46,0,0,1-.585.333,7.208,7.208,0,0,0-.936-.267,1.186,1.186,0,0,1,.046.339,1.314,1.314,0,0,1-2.627,0,1.331,1.331,0,0,1,.1-.483,7.15,7.15,0,0,0-1.684.417Zm15.28-.378c-.059.137-.1.02-.1.45a1.51,1.51,0,0,0,1.313,1.265,1.289,1.289,0,0,0,1.313-1.265,1.173,1.173,0,0,0-.137-.561,8.769,8.769,0,0,1,1.736.365.463.463,0,0,0,.579-.352.516.516,0,0,0-.325-.633,9.385,9.385,0,0,0-2.841-.443,9.1,9.1,0,0,0-2.809.45.522.522,0,0,0-.319.633.455.455,0,0,0,.579.346c.345-.1.683-.189,1.008-.254ZM35.592,76.874,25,45.635l3.205,3.013h0a.693.693,0,0,0,.072.059,6.926,6.926,0,0,0,1.469.893,8.649,8.649,0,0,0,1.567.515,29.115,29.115,0,0,0,4.981.346,18.058,18.058,0,0,0,4.3-.365,7.214,7.214,0,0,0,1.619-.737,8.027,8.027,0,0,0,1.463-1.174L46.1,45.929,35.592,76.874ZM24.733,45.381c-2.516,2.843-5.722,3.535-9.22,3.32a23.383,23.383,0,0,0-2.854.241,20.018,20.018,0,0,0-.884,8.843,16.564,16.564,0,0,0,2.88,7.2,5.928,5.928,0,1,1-1.8,1.122,18.719,18.719,0,0,1-3.173-8.022,21.44,21.44,0,0,1,.631-8.641C5.234,50.872,1.671,54.42,0,60.642v19.5H71.19v-19.5c-1.691-6.306-5.338-9.867-10.52-11.256A11.313,11.313,0,0,1,60.9,51.5a12.211,12.211,0,0,1-.3,2.876c.332.117.657.248.969.385a8.246,8.246,0,0,1,1.749,1.03,6.67,6.67,0,0,1,2.614,4.7,17.1,17.1,0,0,1-.423,5.028l-.007.033c-.026.157-.091.509-.15.867-.41,2.387-.871,5.054-2.666,6.867a5.116,5.116,0,0,1-2.2,1.343c-.1.033-.208.059-.319.085a2.363,2.363,0,1,1,.072-2.25A3.23,3.23,0,0,0,61.2,71.8c1.326-1.33,1.723-3.652,2.081-5.726.039-.228.078-.45.156-.887l.007-.039a15.522,15.522,0,0,0,.4-4.409,4.637,4.637,0,0,0-1.814-3.267,6.046,6.046,0,0,0-1.3-.763,13.823,13.823,0,0,0-1.7-.6V56.1a.446.446,0,0,1-.052-.02,1.087,1.087,0,0,1-.286-.15,1.1,1.1,0,0,1-.325-.013,9.785,9.785,0,0,0-2.237-.176,6.16,6.16,0,0,0-1.834.32c-2.737.991-3.329,3.75-3.914,6.443l-.013.039c-.046.2-.091.424-.176.809-.117.509-.234.959-.345,1.383a7.782,7.782,0,0,0-.267,4.559,6.747,6.747,0,0,0,.429,1.1,2.37,2.37,0,1,1-.3,2.8,3.494,3.494,0,0,1-.715-.58,6.6,6.6,0,0,1-1.43-2.693A9.488,9.488,0,0,1,47.8,64.2c.111-.437.234-.88.325-1.311.033-.137.1-.457.169-.8,0-.013.007-.026.007-.039.7-3.261,1.417-6.593,5.267-7.989a8.475,8.475,0,0,1,2.471-.443,11.586,11.586,0,0,1,2.536.176,10.065,10.065,0,0,0,.221-2.257,7.845,7.845,0,0,0-.455-2.622,24.665,24.665,0,0,0-2.659-.215c-3.446.215-6.612-.463-9.116-3.2l.241-.222c.325-.307.676-.62,1.008-.92,2.666-2.413,4.382-3.965,4.194-8.511V35.52a1.158,1.158,0,0,0,.26-.007c2.016-.287,3.1-2.654,3.362-4.93a9.371,9.371,0,0,0,.039-1.8,5.164,5.164,0,0,0-.351-1.591,1.85,1.85,0,0,0-1.866-1.357l1.092-.652c.13-1.7.546-4,.871-6.176a16.47,16.47,0,0,0,.182-2.883c.592-4.82-.384-8.2-2.666-10.389C48.589,1.457,42.6-.114,35.585.016c-6.3-.046-10.878,1.767-14.122,5.028-3.407-.5-5.481,1.226-6.021,5.511v3.58c.13,2.217.845,3.013,1.73,2.843.026.378.059.763.117,1.154.364,2.439.943,5.087,1.164,7.233l.819.443V26.6a2.226,2.226,0,0,0-1.287-.724,1.838,1.838,0,0,0-2.1,1.33,5.57,5.57,0,0,0-.351,1.591,9.371,9.371,0,0,0,.039,1.8c.26,2.27,1.346,4.643,3.362,4.93a1.41,1.41,0,0,0,.332,0V37.47h0a1.133,1.133,0,0,0,.02.209,8.754,8.754,0,0,0,3.524,5.941c.338.3.7.633,1.079.978l.845.783ZM50.884,21.049C40.592,13.966,34.259,8.1,25.676,13.32c-3.056,1.859-4,5.661-5.39,7.787V37.451c.813,3.737,1.814,4.056,4.3,6.4l4.324,4.07a6.269,6.269,0,0,0,2.6,1.193c1.645.372,7.165.489,8.713.013a6.438,6.438,0,0,0,2.646-1.65l3.14-2.928c3.036-2.83,5.091-4.05,4.876-8.733-.007-4.937-.007-9.841-.007-14.765Zm-20.871-.926a.741.741,0,0,1,.78.685.729.729,0,0,1-.715.75,7.849,7.849,0,0,0-2.945.652,5.3,5.3,0,0,0-1.97,1.565.77.77,0,0,1-1.047.15.7.7,0,0,1-.156-1,6.694,6.694,0,0,1,2.516-2.009,9.327,9.327,0,0,1,3.537-.789Zm11.795,1.291a.721.721,0,1,1,.006-1.441,8.318,8.318,0,0,1,3.388.685,7.234,7.234,0,0,1,2.685,2.107.7.7,0,0,1-.137,1.011.768.768,0,0,1-1.047-.13,5.757,5.757,0,0,0-2.133-1.683,6.831,6.831,0,0,0-2.763-.548ZM33.96,34.085a.574.574,0,0,1-.078-.828.626.626,0,0,1,.858-.072,1.43,1.43,0,0,0,.878.378,1.467,1.467,0,0,0,.917-.378.626.626,0,0,1,.858.078.566.566,0,0,1-.085.822,2.493,2.493,0,0,1-3.349,0Zm-1.918,7.741a.606.606,0,0,1-.267-.835.656.656,0,0,1,.871-.254,6.434,6.434,0,0,0,2.919.763,6.07,6.07,0,0,0,2.874-.757.659.659,0,0,1,.871.241.6.6,0,0,1-.254.835,7.264,7.264,0,0,1-3.492.907,7.667,7.667,0,0,1-3.524-.9ZM19.083,34.49v-5.9c-.26-1.07-.748-1.624-1.3-1.722-1.918-.346-1.612,7.206,1.3,7.617ZM34.551,68.826,30.4,51.909a22.077,22.077,0,0,0,10.566,0L37.016,68.826Z" transform="translate(0 0)" fill="#fff" fill-rule="evenodd"/>
      </g>
    </g>
  </g>
</svg>
