<svg xmlns="http://www.w3.org/2000/svg" width="134" height="134" viewBox="0 0 134 134">
  <g id="Group_3" data-name="Group 3" transform="translate(-866 -400)">
    <circle id="Ellipse_1" data-name="Ellipse 1" cx="67" cy="67" r="67" transform="translate(866 400)" fill="#0e99ff"/>
    <path id="_9608054881584408943" data-name="9608054881584408943" d="M56.571,25.382V2H20.19V25.382H2V75.836H33.53V61.069H29.892V58.608H46.87v2.461H43.232V75.836h31.53V25.382ZM15.34,62.3H8.063V54.916H15.34Zm0-12.306H8.063V42.61H15.34Zm0-12.306H8.063V30.3H15.34ZM29.892,52.455H25.041V47.532h4.851Zm0-9.845H25.041V37.688h4.851Zm0-9.845H25.041V27.843h4.851ZM46.87,27.843h4.851v4.922H46.87Zm0,9.845h4.851V42.61H46.87ZM40.806,52.455H35.956V47.532h4.851Zm0-9.845H35.956V37.688h4.851Zm0-9.845H35.956V27.843h4.851ZM45.657,18H40.806V22.92H35.956V18H31.1V13.075h4.851V8.153h4.851v4.922h4.851ZM46.87,52.455V47.532h4.851v4.922Zm6.063,18.459H50.508V68.453h2.425Zm0-4.922H50.508V63.53h2.425Zm0-4.922H50.508V58.608h2.425ZM68.7,62.3H61.422V54.916H68.7Zm0-12.306H61.422V42.61H68.7Zm0-12.306H61.422V30.3H68.7Z" transform="translate(894.632 428.082)" fill="#fff"/>
  </g>
</svg>
