<svg xmlns="http://www.w3.org/2000/svg" width="134" height="134" viewBox="0 0 134 134">
  <g id="Group_4" data-name="Group 4" transform="translate(-712 -400)">
    <g id="Group_1" data-name="Group 1">
      <circle id="Ellipse_1" data-name="Ellipse 1" cx="67" cy="67" r="67" transform="translate(712 400)" fill="#0e99ff"/>
      <g id="_2110545961595341302" data-name="2110545961595341302" transform="translate(743.201 430.397)">
        <path id="Path_6" data-name="Path 6" d="M67.413,18.19A2.451,2.451,0,0,0,65.3,17a16,16,0,0,0-13.116,6.667l-2.108,2.857a13.754,13.754,0,0,1-10.54,4.762H32.515A2.231,2.231,0,0,1,30.173,28.9a2.231,2.231,0,0,1,2.342-2.381h4.45c3.747,0,7.261-3.1,7.261-6.9v-.238A2.54,2.54,0,0,0,41.884,17H27.6c-8.432,0-15.224,3.809-18.971,10L2.3,37a2.193,2.193,0,0,0,0,2.381l7.026,11.9a3.457,3.457,0,0,0,1.405,1.19H11.2A3.292,3.292,0,0,0,12.607,52a53.363,53.363,0,0,1,29.745-9.048,21.053,21.053,0,0,0,18.5-11.19l6.324-11.428A2.268,2.268,0,0,0,67.413,18.19Z" transform="translate(0 21.731)" fill="#fff"/>
        <path id="Path_7" data-name="Path 7" d="M19.667,34.333H34.19a7.117,7.117,0,0,1,7.143,6.9v.476h0L56.095,26.476a15.24,15.24,0,0,0,0-21.19A15.272,15.272,0,0,0,45.857,1,15.024,15.024,0,0,0,35.381,5.524l-1.19,1.19L33,5.524A14.6,14.6,0,0,0,22.524,1,14.486,14.486,0,0,0,12.286,5.524a15.24,15.24,0,0,0,0,21.19Zm2.619-14.286H26.1L30.143,16a2.91,2.91,0,0,1,2.143-.714,3.037,3.037,0,0,1,1.667,1.19l2.381,4.762,2.857-6.9A2.074,2.074,0,0,1,41.1,12.9a2.321,2.321,0,0,1,2.143.952L48,21a2.411,2.411,0,1,1-4.048,2.619l-2.143-3.333-3.1,7.619a2.287,2.287,0,0,1-2.143,1.667h0a2.288,2.288,0,0,1-2.143-1.429L31.1,21.476l-2.381,2.381a1.8,1.8,0,0,1-1.667.952H22.286A2.249,2.249,0,0,1,19.9,22.428,2.249,2.249,0,0,1,22.286,20.047Z" transform="translate(7.268 0)" fill="#fff"/>
      </g>
    </g>
  </g>
</svg>
